# xmcd
# 
# Track frame offsets:
#     150
#     22755
#     42587
#     59887
#     78228
#     95601
#     115032
#     129814
#     146772
#     166256
#     184754
#     203499
#     221134
#     240544
#     255759
#     276230
# 
# Disc length: 3962
# 
# Revision: 0
# Processed by: cddbd v1.5.2PL0 Copyright (c) Steve Scherf et al.
# Submitted via: BonkEnc v1.0.8
# 
DISCID=da0f7810
DTITLE=Texas - Texas - The Geatest Hits
DYEAR=2000
DGENRE=Blues
TTITLE0=I Don't Want a Lover
TTITLE1=In Demand
TTITLE2=Say What You Want
TTITLE3=Summer Son
TTITLE4=Inner Smile
TTITLE5=So in Love With You
TTITLE6=Black Eyed Boy
TTITLE7=So Called a Friend
TTITLE8=Everyday Now
TTITLE9=In Our Lifetime
TTITLE10=Halo
TTITLE11=Guitar Song
TTITLE12=Prayer For You
TTITLE13=When We Are Together
TTITLE14=Put Your Arms Around Me
TTITLE15=Say What You Want (All Day Every Day)
EXTD=YEAR: 2000 ID3G:   0
EXTT0=
EXTT1=
EXTT2=
EXTT3=
EXTT4=
EXTT5=
EXTT6=
EXTT7=
EXTT8=
EXTT9=
EXTT10=
EXTT11=
EXTT12=
EXTT13=
EXTT14=
EXTT15=
PLAYORDER=
